<?xml version="1.0" standalone="no"?>
<!DOCTYPE svg PUBLIC "-//W3C//DTD SVG 20010904//EN"
 "http://www.w3.org/TR/2001/REC-SVG-20010904/DTD/svg10.dtd">
<svg version="1.0" xmlns="http://www.w3.org/2000/svg"
 width="800.000000pt" height="800.000000pt" viewBox="0 0 800.000000 800.000000"
 preserveAspectRatio="xMidYMid meet">
<metadata>
Created by potrace 1.11, written by Peter Selinger 2001-2013
</metadata>
<g transform="translate(0.000000,800.000000) scale(0.100000,-0.100000)"
fill="#000000" stroke="none">
<path d="M3760 7994 c-554 -47 -954 -146 -1410 -349 -265 -118 -577 -307 -815
-494 -505 -398 -930 -938 -1180 -1501 -174 -392 -277 -769 -331 -1210 -25
-203 -25 -665 -1 -875 132 -1114 686 -2085 1572 -2755 595 -451 1326 -729
2080 -791 203 -17 649 -6 840 20 440 60 885 196 1270 388 572 286 1083 723
1461 1248 377 524 625 1152 715 1810 26 191 37 637 20 840 -103 1250 -783
2377 -1841 3051 -508 324 -1088 529 -1700 600 -127 14 -580 27 -680 18z m2508
-2641 l2 -343 -2270 0 -2270 0 0 345 0 345 2268 -2 2267 -3 3 -342z m-2270
-1355 l-3 -343 -1132 -3 -1133 -2 0 345 0 345 1135 0 1135 0 -2 -342z m2270
-1350 l-3 -343 -2267 -3 -2268 -2 0 345 0 345 2270 0 2270 0 -2 -342z"/>
</g>
</svg>
