<svg width="1466" height="1053" viewBox="0 0 1466 1053" xmlns="http://www.w3.org/2000/svg"><title>grid-background-svg</title><path d="M1444.463 0v20.252h-41.749V0h-.283v20.252h-41.75V0h-.281v20.252h-41.806V0h-.282v20.252h-41.75V0h-.283v20.252h-40.843V0h-.283v20.252h-41.749V0h-.282v20.252h-41.75V0h-.282v20.252h-41.805V0h-.283v20.252h-41.749V0h-.283v20.252h-40.843V0h-.283v20.252h-41.75V0h-.282v20.252h-41.749V0h-.283v20.252h-41.805V0h-.282v20.252h-41.75V0h-.283v20.252h-40.843V0h-.283v20.252h-41.75V0h-.282v20.252h-41.748V0h-.284v20.252h-41.805V0h-.283v20.252h-41.748V0h-.283v20.252h-40.844V0h-.283v20.252h-41.749V0h-.282v20.252h-41.75V0h-.282v20.252h-41.805V0h-.283v20.252h-41.749V0h-.283v20.252h-40.844V0h-.282v20.252h-41.75V0h-.282v20.252h-41.749V0h-.283v20.252h-41.805V0h-.283v20.252h-41.749V0h-.283v20.252h-40.843V0h-.283v20.252h-41.748V0h-.284v20.252h-41.748V0h-.283v20.252H62.736V0h-.283v20.252H20.705V0h-.283v20.252H0v.283h20.422v41.75H0v.282h20.422v41.748H0v.284h20.422v41.805H0v.282h20.422v41.75H0v.282h20.422v21.724h.283v-21.724h41.748v21.724h.283v-21.724h41.806v21.724h.283v-21.724h41.748v21.724h.284v-21.724h41.748v21.724h.283v-21.724h40.843v21.724h.283v-21.724h41.75v21.724h.282v-21.724h41.805v21.724h.283v-21.724h41.749v21.724h.283v-21.724h41.749v21.724h.282v-21.724h40.844v21.724h.283v-21.724h41.749v21.724h.283v-21.724h41.805v21.724h.283v-21.724h41.749v21.724h.282v-21.724h41.75v21.724h.282v-21.724h40.844v21.724h.283v-21.724h41.748v21.724h.283v-21.724h41.805v21.724h.284v-21.724h41.748v21.724h.283v-21.724h41.749v21.724h.283v-21.724h40.843v21.724h.283v-21.724h41.75v21.724h.282v-21.724h41.805v21.724h.283v-21.724h41.749v21.724h.282v-21.724h41.75v21.724h.283v-21.724h40.843v21.724h.283v-21.724h41.75v21.724h.282v-21.724h41.805v21.724h.283v-21.724h41.749v21.724h.282v-21.724h41.75v21.724h.282v-21.724h40.843v21.724h.284v-21.724h41.749v21.724h.282v-21.724h41.806v21.724h.282v-21.724h41.749v21.724h.283v-21.724h41.749v21.724h.283v-21.724h20.422v-.282h-20.422v-41.75h20.422v-.282h-20.422v-41.805h20.422v-.284h-20.422V62.567h20.422v-.283h-20.422V20.535h20.422v-.283h-20.422V0h-.283zm-41.749 62.284h41.749V20.535h-41.749v41.75zm-42.032 0h41.749V20.535h-41.75v41.75zm-42.088 0h41.806V20.535h-41.806v41.75zm-42.031 0h41.749V20.535h-41.75v41.75zm-.284-41.749v41.75h-40.843v-41.75h40.843zm-82.875 41.75h41.75v-41.75h-41.75v41.75zm-42.031 0h41.749v-41.75h-41.75v41.75zm-42.088 0h41.805v-41.75h-41.805v41.75zm-42.032 0h41.75v-41.75h-41.75v41.75zm-.283-41.75v41.75h-40.843v-41.75h40.843zm-82.876 41.75h41.75v-41.75h-41.75v41.75zm-42.03 0h41.748v-41.75h-41.749v41.75zm-42.089 0h41.805v-41.75h-41.805v41.75zm-42.032 0h41.75v-41.75h-41.75v41.75zm-.283-41.75v41.75h-40.843v-41.75h40.843zm-82.875 41.75h41.749v-41.75h-41.75v41.75zm-42.031 0h41.748v-41.75h-41.748v41.75zm-42.09 0h41.806v-41.75h-41.805v41.75zm-42.03 0h41.748v-41.75h-41.748v41.75zm-.283-41.75v41.75h-40.844v-41.75h40.844zm-82.876 41.75h41.75v-41.75h-41.75v41.75zm-42.031 0h41.749v-41.75h-41.75v41.75zm-42.088 0h41.805v-41.75h-41.805v41.75zm-42.032 0h41.749v-41.75h-41.749v41.75zm-.283-41.75v41.75h-40.844v-41.75h40.844zm-82.875 41.75h41.749v-41.75h-41.749v41.75zm-42.032 0h41.749v-41.75h-41.749v41.75zm-42.088 0h41.805v-41.75h-41.805v41.75zm-42.032 0h41.75v-41.75h-41.75v41.75zm-.283-41.75v41.75h-40.843v-41.75h40.843zm-82.874 41.75h41.748v-41.75h-41.748v41.75zm-42.032 0h41.748v-41.75h-41.748v41.75zm-42.089 0h41.806v-41.75H62.736v41.75zm-42.031 0h41.748v-41.75H20.705v41.75zm1382.01 42.03h41.748V62.567h-41.749v41.748zm-42.033 0h41.749V62.567h-41.75v41.748zm-42.088 0h41.806V62.567h-41.806v41.748zm-42.031 0h41.749V62.567h-41.75v41.748zm-.284-41.748v41.748h-40.843V62.567h40.843zm-82.875 41.748h41.75V62.567h-41.75v41.748zm-42.031 0h41.749V62.567h-41.75v41.748zm-42.088 0h41.805V62.567h-41.805v41.748zm-42.032 0h41.75V62.567h-41.75v41.748zm-.283-41.748v41.748h-40.843V62.567h40.843zm-82.876 41.748h41.75V62.567h-41.75v41.748zm-42.03 0h41.748V62.567h-41.749v41.748zm-42.089 0h41.805V62.567h-41.805v41.748zm-42.032 0h41.75V62.567h-41.75v41.748zm-.283-41.748v41.748h-40.843V62.567h40.843zm-82.875 41.748h41.749V62.567h-41.75v41.748zm-42.031 0h41.748V62.567h-41.748v41.748zm-42.09 0h41.806V62.567h-41.805v41.748zm-42.03 0h41.748V62.567h-41.748v41.748zm-.283-41.748v41.748h-40.844V62.567h40.844zm-82.876 41.748h41.75V62.567h-41.75v41.748zm-42.031 0h41.749V62.567h-41.75v41.748zm-42.088 0h41.805V62.567h-41.805v41.748zm-42.032 0h41.749V62.567h-41.749v41.748zm-.283-41.748v41.748h-40.844V62.567h40.844zm-82.875 41.748h41.749V62.567h-41.749v41.748zm-42.032 0h41.749V62.567h-41.749v41.748zm-42.088 0h41.805V62.567h-41.805v41.748zm-42.032 0h41.75V62.567h-41.75v41.748zm-.283-41.748v41.748h-40.843V62.567h40.843zm-82.874 41.748h41.748V62.567h-41.748v41.748zm-42.032 0h41.748V62.567h-41.748v41.748zm-42.089 0h41.806V62.567H62.736v41.748zm-42.031 0h41.748V62.567H20.705v41.748zm1382.01 42.089h41.748v-41.806h-41.749v41.806zm-42.033 0h41.749v-41.806h-41.75v41.806zm-42.088 0h41.806v-41.806h-41.806v41.806zm-42.031 0h41.749v-41.806h-41.75v41.806zm-.284-41.805v41.805h-40.843v-41.805h40.843zm-82.875 41.805h41.75v-41.806h-41.75v41.806zm-42.031 0h41.749v-41.806h-41.75v41.806zm-42.088 0h41.805v-41.806h-41.805v41.806zm-42.032 0h41.75v-41.806h-41.75v41.806zm-.283-41.805v41.805h-40.843v-41.805h40.843zm-82.876 41.805h41.75v-41.806h-41.75v41.806zm-42.03 0h41.748v-41.806h-41.749v41.806zm-42.089 0h41.805v-41.806h-41.805v41.806zm-42.032 0h41.75v-41.806h-41.75v41.806zm-.283-41.805v41.805h-40.843v-41.805h40.843zm-82.875 41.805h41.749v-41.806h-41.75v41.806zm-42.031 0h41.748v-41.806h-41.748v41.806zm-42.09 0h41.806v-41.806h-41.805v41.806zm-42.03 0h41.748v-41.806h-41.748v41.806zm-.283-41.805v41.805h-40.844v-41.805h40.844zm-82.876 41.805h41.75v-41.806h-41.75v41.806zm-42.031 0h41.749v-41.806h-41.75v41.806zm-42.088 0h41.805v-41.806h-41.805v41.806zm-42.032 0h41.749v-41.806h-41.749v41.806zm-.283-41.805v41.805h-40.844v-41.805h40.844zm-82.875 41.805h41.749v-41.806h-41.749v41.806zm-42.032 0h41.749v-41.806h-41.749v41.806zm-42.088 0h41.805v-41.806h-41.805v41.806zm-42.032 0h41.75v-41.806h-41.75v41.806zm-.283-41.805v41.805h-40.843v-41.805h40.843zm-82.874 41.805h41.748v-41.806h-41.748v41.806zm-42.032 0h41.748v-41.806h-41.748v41.806zm-42.089 0h41.806v-41.806H62.736v41.806zm-42.031 0h41.748v-41.806H20.705v41.806zm1382.01 42.032h41.748v-41.75h-41.749v41.75zm-42.033 0h41.749v-41.75h-41.75v41.75zm-42.088 0h41.806v-41.75h-41.806v41.75zm-42.031 0h41.749v-41.75h-41.75v41.75zm-.284-41.75v41.75h-40.843v-41.75h40.843zm-82.875 41.75h41.75v-41.75h-41.75v41.75zm-42.031 0h41.749v-41.75h-41.75v41.75zm-42.088 0h41.805v-41.75h-41.805v41.75zm-42.032 0h41.75v-41.75h-41.75v41.75zm-.283-41.75v41.75h-40.843v-41.75h40.843zm-82.876 41.75h41.75v-41.75h-41.75v41.75zm-42.03 0h41.748v-41.75h-41.749v41.75zm-42.089 0h41.805v-41.75h-41.805v41.75zm-42.032 0h41.75v-41.75h-41.75v41.75zm-.283-41.75v41.75h-40.843v-41.75h40.843zm-82.875 41.75h41.749v-41.75h-41.75v41.75zm-42.031 0h41.748v-41.75h-41.748v41.75zm-42.09 0h41.806v-41.75h-41.805v41.75zm-42.03 0h41.748v-41.75h-41.748v41.75zm-.283-41.75v41.75h-40.844v-41.75h40.844zm-82.876 41.75h41.75v-41.75h-41.75v41.75zm-42.031 0h41.749v-41.75h-41.75v41.75zm-42.088 0h41.805v-41.75h-41.805v41.75zm-42.032 0h41.749v-41.75h-41.749v41.75zm-.283-41.75v41.75h-40.844v-41.75h40.844zm-82.875 41.75h41.749v-41.75h-41.749v41.75zm-42.032 0h41.749v-41.75h-41.749v41.75zm-42.088 0h41.805v-41.75h-41.805v41.75zm-42.032 0h41.75v-41.75h-41.75v41.75zm-.283-41.75v41.75h-40.843v-41.75h40.843zm-82.874 41.75h41.748v-41.75h-41.748v41.75zm-42.032 0h41.748v-41.75h-41.748v41.75zm-42.089 0h41.806v-41.75H62.736v41.75zm-42.031 0h41.748v-41.75H20.705v41.75zm1423.758 22.006v20.251h-41.749v-20.251h-.283v20.251h-41.75v-20.251h-.281v20.251h-41.806v-20.251h-.282v20.251h-41.75v-20.251h-.283v20.251h-40.843v-20.251h-.283v20.251h-41.749v-20.251h-.282v20.251h-41.75v-20.251h-.282v20.251h-41.805v-20.251h-.283v20.251h-41.749v-20.251h-.283v20.251h-40.843v-20.251h-.283v20.251h-41.75v-20.251h-.282v20.251h-41.749v-20.251h-.283v20.251h-41.805v-20.251h-.282v20.251h-41.75v-20.251h-.283v20.251h-40.843v-20.251h-.283v20.251h-41.75v-20.251h-.282v20.251h-41.748v-20.251h-.284v20.251h-41.805v-20.251h-.283v20.251h-41.748v-20.251h-.283v20.251h-40.844v-20.251h-.283v20.251h-41.749v-20.251h-.282v20.251h-41.75v-20.251h-.282v20.251h-41.805v-20.251h-.283v20.251h-41.749v-20.251h-.283v20.251h-40.844v-20.251h-.282v20.251h-41.75v-20.251h-.282v20.251h-41.749v-20.251h-.283v20.251h-41.805v-20.251h-.283v20.251h-41.749v-20.251h-.283v20.251h-40.843v-20.251h-.283v20.251h-41.748v-20.251h-.284v20.251h-41.748v-20.251h-.283v20.251H62.736v-20.251h-.283v20.251H20.705v-20.251h-.283v20.251H0v.283h20.422v41.749H0v.283h20.422v41.748H0v.283h20.422v41.806H0v.283h20.422v41.748H0v.283h20.422v21.723h.283V399.16h41.748v21.723h.283V399.16h41.806v21.723h.283V399.16h41.748v21.723h.284V399.16h41.748v21.723h.283V399.16h40.843v21.723h.283V399.16h41.75v21.723h.282V399.16h41.805v21.723h.283V399.16h41.749v21.723h.283V399.16h41.749v21.723h.282V399.16h40.844v21.723h.283V399.16h41.749v21.723h.283V399.16h41.805v21.723h.283V399.16h41.749v21.723h.282V399.16h41.75v21.723h.282V399.16h40.844v21.723h.283V399.16h41.748v21.723h.283V399.16h41.805v21.723h.284V399.16h41.748v21.723h.283V399.16h41.749v21.723h.283V399.16h40.843v21.723h.283V399.16h41.75v21.723h.282V399.16h41.805v21.723h.283V399.16h41.749v21.723h.282V399.16h41.75v21.723h.283V399.16h40.843v21.723h.283V399.16h41.75v21.723h.282V399.16h41.805v21.723h.283V399.16h41.749v21.723h.282V399.16h41.75v21.723h.282V399.16h40.843v21.723h.284V399.16h41.749v21.723h.282V399.16h41.806v21.723h.282V399.16h41.749v21.723h.283V399.16h41.749v21.723h.283V399.16h20.422v-.283h-20.422v-41.748h20.422v-.283h-20.422V315.04h20.422v-.283h-20.422v-41.748h20.422v-.283h-20.422v-41.749h20.422v-.283h-20.422v-20.251h-.283zm-41.749 62.283h41.749v-41.749h-41.749v41.749zm-42.032 0h41.749v-41.749h-41.75v41.749zm-42.088 0h41.806v-41.749h-41.806v41.749zm-42.031 0h41.749v-41.749h-41.75v41.749zm-.284-41.749v41.749h-40.843v-41.749h40.843zm-82.875 41.749h41.75v-41.749h-41.75v41.749zm-42.031 0h41.749v-41.749h-41.75v41.749zm-42.088 0h41.805v-41.749h-41.805v41.749zm-42.032 0h41.75v-41.749h-41.75v41.749zm-.283-41.749v41.749h-40.843v-41.749h40.843zm-82.876 41.749h41.75v-41.749h-41.75v41.749zm-42.03 0h41.748v-41.749h-41.749v41.749zm-42.089 0h41.805v-41.749h-41.805v41.749zm-42.032 0h41.75v-41.749h-41.75v41.749zm-.283-41.749v41.749h-40.843v-41.749h40.843zm-82.875 41.749h41.749v-41.749h-41.75v41.749zm-42.031 0h41.748v-41.749h-41.748v41.749zm-42.09 0h41.806v-41.749h-41.805v41.749zm-42.03 0h41.748v-41.749h-41.748v41.749zm-.283-41.749v41.749h-40.844v-41.749h40.844zm-82.876 41.749h41.75v-41.749h-41.75v41.749zm-42.031 0h41.749v-41.749h-41.75v41.749zm-42.088 0h41.805v-41.749h-41.805v41.749zm-42.032 0h41.749v-41.749h-41.749v41.749zm-.283-41.749v41.749h-40.844v-41.749h40.844zm-82.875 41.749h41.749v-41.749h-41.749v41.749zm-42.032 0h41.749v-41.749h-41.749v41.749zm-42.088 0h41.805v-41.749h-41.805v41.749zm-42.032 0h41.75v-41.749h-41.75v41.749zm-.283-41.749v41.749h-40.843v-41.749h40.843zm-82.874 41.749h41.748v-41.749h-41.748v41.749zm-42.032 0h41.748v-41.749h-41.748v41.749zm-42.089 0h41.806v-41.749H62.736v41.749zm-42.031 0h41.748v-41.749H20.705v41.749zm1382.01 42.031h41.748v-41.748h-41.749v41.748zm-42.033 0h41.749v-41.748h-41.75v41.748zm-42.088 0h41.806v-41.748h-41.806v41.748zm-42.031 0h41.749v-41.748h-41.75v41.748zm-.284-41.748v41.748h-40.843v-41.748h40.843zm-82.875 41.748h41.75v-41.748h-41.75v41.748zm-42.031 0h41.749v-41.748h-41.75v41.748zm-42.088 0h41.805v-41.748h-41.805v41.748zm-42.032 0h41.75v-41.748h-41.75v41.748zm-.283-41.748v41.748h-40.843v-41.748h40.843zm-82.876 41.748h41.75v-41.748h-41.75v41.748zm-42.03 0h41.748v-41.748h-41.749v41.748zm-42.089 0h41.805v-41.748h-41.805v41.748zm-42.032 0h41.75v-41.748h-41.75v41.748zm-.283-41.748v41.748h-40.843v-41.748h40.843zm-82.875 41.748h41.749v-41.748h-41.75v41.748zm-42.031 0h41.748v-41.748h-41.748v41.748zm-42.09 0h41.806v-41.748h-41.805v41.748zm-42.03 0h41.748v-41.748h-41.748v41.748zm-.283-41.748v41.748h-40.844v-41.748h40.844zm-82.876 41.748h41.75v-41.748h-41.75v41.748zm-42.031 0h41.749v-41.748h-41.75v41.748zm-42.088 0h41.805v-41.748h-41.805v41.748zm-42.032 0h41.749v-41.748h-41.749v41.748zm-.283-41.748v41.748h-40.844v-41.748h40.844zm-82.875 41.748h41.749v-41.748h-41.749v41.748zm-42.032 0h41.749v-41.748h-41.749v41.748zm-42.088 0h41.805v-41.748h-41.805v41.748zm-42.032 0h41.75v-41.748h-41.75v41.748zm-.283-41.748v41.748h-40.843v-41.748h40.843zm-82.874 41.748h41.748v-41.748h-41.748v41.748zm-42.032 0h41.748v-41.748h-41.748v41.748zm-42.089 0h41.806v-41.748H62.736v41.748zm-42.031 0h41.748v-41.748H20.705v41.748zm1382.01 42.089h41.748v-41.806h-41.749v41.806zm-42.033 0h41.749v-41.806h-41.75v41.806zm-42.088 0h41.806v-41.806h-41.806v41.806zm-42.031 0h41.749v-41.806h-41.75v41.806zm-.284-41.806v41.806h-40.843v-41.806h40.843zm-82.875 41.806h41.75v-41.806h-41.75v41.806zm-42.031 0h41.749v-41.806h-41.75v41.806zm-42.088 0h41.805v-41.806h-41.805v41.806zm-42.032 0h41.75v-41.806h-41.75v41.806zm-.283-41.806v41.806h-40.843v-41.806h40.843zm-82.876 41.806h41.75v-41.806h-41.75v41.806zm-42.03 0h41.748v-41.806h-41.749v41.806zm-42.089 0h41.805v-41.806h-41.805v41.806zm-42.032 0h41.75v-41.806h-41.75v41.806zm-.283-41.806v41.806h-40.843v-41.806h40.843zm-82.875 41.806h41.749v-41.806h-41.75v41.806zm-42.031 0h41.748v-41.806h-41.748v41.806zm-42.09 0h41.806v-41.806h-41.805v41.806zm-42.03 0h41.748v-41.806h-41.748v41.806zm-.283-41.806v41.806h-40.844v-41.806h40.844zm-82.876 41.806h41.75v-41.806h-41.75v41.806zm-42.031 0h41.749v-41.806h-41.75v41.806zm-42.088 0h41.805v-41.806h-41.805v41.806zm-42.032 0h41.749v-41.806h-41.749v41.806zm-.283-41.806v41.806h-40.844v-41.806h40.844zm-82.875 41.806h41.749v-41.806h-41.749v41.806zm-42.032 0h41.749v-41.806h-41.749v41.806zm-42.088 0h41.805v-41.806h-41.805v41.806zm-42.032 0h41.75v-41.806h-41.75v41.806zm-.283-41.806v41.806h-40.843v-41.806h40.843zm-82.874 41.806h41.748v-41.806h-41.748v41.806zm-42.032 0h41.748v-41.806h-41.748v41.806zm-42.089 0h41.806v-41.806H62.736v41.806zm-42.031 0h41.748v-41.806H20.705v41.806zm1382.01 42.031h41.748v-41.748h-41.749v41.748zm-42.033 0h41.749v-41.748h-41.75v41.748zm-42.088 0h41.806v-41.748h-41.806v41.748zm-42.031 0h41.749v-41.748h-41.75v41.748zm-.284-41.748v41.748h-40.843v-41.748h40.843zm-82.875 41.748h41.75v-41.748h-41.75v41.748zm-42.031 0h41.749v-41.748h-41.75v41.748zm-42.088 0h41.805v-41.748h-41.805v41.748zm-42.032 0h41.75v-41.748h-41.75v41.748zm-.283-41.748v41.748h-40.843v-41.748h40.843zm-82.876 41.748h41.75v-41.748h-41.75v41.748zm-42.03 0h41.748v-41.748h-41.749v41.748zm-42.089 0h41.805v-41.748h-41.805v41.748zm-42.032 0h41.75v-41.748h-41.75v41.748zm-.283-41.748v41.748h-40.843v-41.748h40.843zm-82.875 41.748h41.749v-41.748h-41.75v41.748zm-42.031 0h41.748v-41.748h-41.748v41.748zm-42.09 0h41.806v-41.748h-41.805v41.748zm-42.03 0h41.748v-41.748h-41.748v41.748zm-.283-41.748v41.748h-40.844v-41.748h40.844zm-82.876 41.748h41.75v-41.748h-41.75v41.748zm-42.031 0h41.749v-41.748h-41.75v41.748zm-42.088 0h41.805v-41.748h-41.805v41.748zm-42.032 0h41.749v-41.748h-41.749v41.748zm-.283-41.748v41.748h-40.844v-41.748h40.844zm-82.875 41.748h41.749v-41.748h-41.749v41.748zm-42.032 0h41.749v-41.748h-41.749v41.748zm-42.088 0h41.805v-41.748h-41.805v41.748zm-42.032 0h41.75v-41.748h-41.75v41.748zm-.283-41.748v41.748h-40.843v-41.748h40.843zm-82.874 41.748h41.748v-41.748h-41.748v41.748zm-42.032 0h41.748v-41.748h-41.748v41.748zm-42.089 0h41.806v-41.748H62.736v41.748zm-42.031 0h41.748v-41.748H20.705v41.748zm1423.758 22.006v20.253h-41.749v-20.253h-.283v20.253h-41.75v-20.253h-.281v20.253h-41.806v-20.253h-.282v20.253h-41.75v-20.253h-.283v20.253h-40.843v-20.253h-.283v20.253h-41.749v-20.253h-.282v20.253h-41.75v-20.253h-.282v20.253h-41.805v-20.253h-.283v20.253h-41.749v-20.253h-.283v20.253h-40.843v-20.253h-.283v20.253h-41.75v-20.253h-.282v20.253h-41.749v-20.253h-.283v20.253h-41.805v-20.253h-.282v20.253h-41.75v-20.253h-.283v20.253h-40.843v-20.253h-.283v20.253h-41.75v-20.253h-.282v20.253h-41.748v-20.253h-.284v20.253h-41.805v-20.253h-.283v20.253h-41.748v-20.253h-.283v20.253h-40.844v-20.253h-.283v20.253h-41.749v-20.253h-.282v20.253h-41.75v-20.253h-.282v20.253h-41.805v-20.253h-.283v20.253h-41.749v-20.253h-.283v20.253h-40.844v-20.253h-.282v20.253h-41.75v-20.253h-.282v20.253h-41.749v-20.253h-.283v20.253h-41.805v-20.253h-.283v20.253h-41.749v-20.253h-.283v20.253h-40.843v-20.253h-.283v20.253h-41.748v-20.253h-.284v20.253h-41.748v-20.253h-.283v20.253H62.736v-20.253h-.283v20.253H20.705v-20.253h-.283v20.253H0v.282h20.422v41.749H0v.282h20.422v41.75H0v.283h20.422v41.805H0v.283h20.422v41.748H0v.283h20.422v21.723h.283V609.6h41.748v21.723h.283V609.6h41.806v21.723h.283V609.6h41.748v21.723h.284V609.6h41.748v21.723h.283V609.6h40.843v21.723h.283V609.6h41.75v21.723h.282V609.6h41.805v21.723h.283V609.6h41.749v21.723h.283V609.6h41.749v21.723h.282V609.6h40.844v21.723h.283V609.6h41.749v21.723h.283V609.6h41.805v21.723h.283V609.6h41.749v21.723h.282V609.6h41.75v21.723h.282V609.6h40.844v21.723h.283V609.6h41.748v21.723h.283V609.6h41.805v21.723h.284V609.6h41.748v21.723h.283V609.6h41.749v21.723h.283V609.6h40.843v21.723h.283V609.6h41.75v21.723h.282V609.6h41.805v21.723h.283V609.6h41.749v21.723h.282V609.6h41.75v21.723h.283V609.6h40.843v21.723h.283V609.6h41.75v21.723h.282V609.6h41.805v21.723h.283V609.6h41.749v21.723h.282V609.6h41.75v21.723h.282V609.6h40.843v21.723h.284V609.6h41.749v21.723h.282V609.6h41.806v21.723h.282V609.6h41.749v21.723h.283V609.6h41.749v21.723h.283V609.6h20.422v-.283h-20.422V567.57h20.422v-.283h-20.422V525.48h20.422v-.283h-20.422v-41.75h20.422v-.282h-20.422v-41.749h20.422v-.282h-20.422v-20.253h-.283zm-41.749 62.284h41.749v-41.749h-41.749v41.749zm-42.032 0h41.749v-41.749h-41.75v41.749zm-42.088 0h41.806v-41.749h-41.806v41.749zm-42.031 0h41.749v-41.749h-41.75v41.749zm-.284-41.749v41.749h-40.843v-41.749h40.843zm-82.875 41.749h41.75v-41.749h-41.75v41.749zm-42.031 0h41.749v-41.749h-41.75v41.749zm-42.088 0h41.805v-41.749h-41.805v41.749zm-42.032 0h41.75v-41.749h-41.75v41.749zm-.283-41.749v41.749h-40.843v-41.749h40.843zm-82.876 41.749h41.75v-41.749h-41.75v41.749zm-42.03 0h41.748v-41.749h-41.749v41.749zm-42.089 0h41.805v-41.749h-41.805v41.749zm-42.032 0h41.75v-41.749h-41.75v41.749zm-.283-41.749v41.749h-40.843v-41.749h40.843zm-82.875 41.749h41.749v-41.749h-41.75v41.749zm-42.031 0h41.748v-41.749h-41.748v41.749zm-42.09 0h41.806v-41.749h-41.805v41.749zm-42.03 0h41.748v-41.749h-41.748v41.749zm-.283-41.749v41.749h-40.844v-41.749h40.844zm-82.876 41.749h41.75v-41.749h-41.75v41.749zm-42.031 0h41.749v-41.749h-41.75v41.749zm-42.088 0h41.805v-41.749h-41.805v41.749zm-42.032 0h41.749v-41.749h-41.749v41.749zm-.283-41.749v41.749h-40.844v-41.749h40.844zm-82.875 41.749h41.749v-41.749h-41.749v41.749zm-42.032 0h41.749v-41.749h-41.749v41.749zm-42.088 0h41.805v-41.749h-41.805v41.749zm-42.032 0h41.75v-41.749h-41.75v41.749zm-.283-41.749v41.749h-40.843v-41.749h40.843zm-82.874 41.749h41.748v-41.749h-41.748v41.749zm-42.032 0h41.748v-41.749h-41.748v41.749zm-42.089 0h41.806v-41.749H62.736v41.749zm-42.031 0h41.748v-41.749H20.705v41.749zm1382.01 42.032h41.748v-41.75h-41.749v41.75zm-42.033 0h41.749v-41.75h-41.75v41.75zm-42.088 0h41.806v-41.75h-41.806v41.75zm-42.031 0h41.749v-41.75h-41.75v41.75zm-.284-41.75v41.75h-40.843v-41.75h40.843zm-82.875 41.75h41.75v-41.75h-41.75v41.75zm-42.031 0h41.749v-41.75h-41.75v41.75zm-42.088 0h41.805v-41.75h-41.805v41.75zm-42.032 0h41.75v-41.75h-41.75v41.75zm-.283-41.75v41.75h-40.843v-41.75h40.843zm-82.876 41.75h41.75v-41.75h-41.75v41.75zm-42.03 0h41.748v-41.75h-41.749v41.75zm-42.089 0h41.805v-41.75h-41.805v41.75zm-42.032 0h41.75v-41.75h-41.75v41.75zm-.283-41.75v41.75h-40.843v-41.75h40.843zm-82.875 41.75h41.749v-41.75h-41.75v41.75zm-42.031 0h41.748v-41.75h-41.748v41.75zm-42.09 0h41.806v-41.75h-41.805v41.75zm-42.03 0h41.748v-41.75h-41.748v41.75zm-.283-41.75v41.75h-40.844v-41.75h40.844zm-82.876 41.75h41.75v-41.75h-41.75v41.75zm-42.031 0h41.749v-41.75h-41.75v41.75zm-42.088 0h41.805v-41.75h-41.805v41.75zm-42.032 0h41.749v-41.75h-41.749v41.75zm-.283-41.75v41.75h-40.844v-41.75h40.844zm-82.875 41.75h41.749v-41.75h-41.749v41.75zm-42.032 0h41.749v-41.75h-41.749v41.75zm-42.088 0h41.805v-41.75h-41.805v41.75zm-42.032 0h41.75v-41.75h-41.75v41.75zm-.283-41.75v41.75h-40.843v-41.75h40.843zm-82.874 41.75h41.748v-41.75h-41.748v41.75zm-42.032 0h41.748v-41.75h-41.748v41.75zm-42.089 0h41.806v-41.75H62.736v41.75zm-42.031 0h41.748v-41.75H20.705v41.75zm1382.01 42.088h41.748V525.48h-41.749v41.805zm-42.033 0h41.749V525.48h-41.75v41.805zm-42.088 0h41.806V525.48h-41.806v41.805zm-42.031 0h41.749V525.48h-41.75v41.805zm-.284-41.805v41.805h-40.843V525.48h40.843zm-82.875 41.805h41.75V525.48h-41.75v41.805zm-42.031 0h41.749V525.48h-41.75v41.805zm-42.088 0h41.805V525.48h-41.805v41.805zm-42.032 0h41.75V525.48h-41.75v41.805zm-.283-41.805v41.805h-40.843V525.48h40.843zm-82.876 41.805h41.75V525.48h-41.75v41.805zm-42.03 0h41.748V525.48h-41.749v41.805zm-42.089 0h41.805V525.48h-41.805v41.805zm-42.032 0h41.75V525.48h-41.75v41.805zm-.283-41.805v41.805h-40.843V525.48h40.843zm-82.875 41.805h41.749V525.48h-41.75v41.805zm-42.031 0h41.748V525.48h-41.748v41.805zm-42.09 0h41.806V525.48h-41.805v41.805zm-42.03 0h41.748V525.48h-41.748v41.805zm-.283-41.805v41.805h-40.844V525.48h40.844zm-82.876 41.805h41.75V525.48h-41.75v41.805zm-42.031 0h41.749V525.48h-41.75v41.805zm-42.088 0h41.805V525.48h-41.805v41.805zm-42.032 0h41.749V525.48h-41.749v41.805zm-.283-41.805v41.805h-40.844V525.48h40.844zm-82.875 41.805h41.749V525.48h-41.749v41.805zm-42.032 0h41.749V525.48h-41.749v41.805zm-42.088 0h41.805V525.48h-41.805v41.805zm-42.032 0h41.75V525.48h-41.75v41.805zm-.283-41.805v41.805h-40.843V525.48h40.843zm-82.874 41.805h41.748V525.48h-41.748v41.805zm-42.032 0h41.748V525.48h-41.748v41.805zm-42.089 0h41.806V525.48H62.736v41.805zm-42.031 0h41.748V525.48H20.705v41.805zm1382.01 42.031h41.748V567.57h-41.749v41.748zm-42.033 0h41.749V567.57h-41.75v41.748zm-42.088 0h41.806V567.57h-41.806v41.748zm-42.031 0h41.749V567.57h-41.75v41.748zm-.284-41.748v41.748h-40.843V567.57h40.843zm-82.875 41.748h41.75V567.57h-41.75v41.748zm-42.031 0h41.749V567.57h-41.75v41.748zm-42.088 0h41.805V567.57h-41.805v41.748zm-42.032 0h41.75V567.57h-41.75v41.748zm-.283-41.748v41.748h-40.843V567.57h40.843zm-82.876 41.748h41.75V567.57h-41.75v41.748zm-42.03 0h41.748V567.57h-41.749v41.748zm-42.089 0h41.805V567.57h-41.805v41.748zm-42.032 0h41.75V567.57h-41.75v41.748zm-.283-41.748v41.748h-40.843V567.57h40.843zm-82.875 41.748h41.749V567.57h-41.75v41.748zm-42.031 0h41.748V567.57h-41.748v41.748zm-42.09 0h41.806V567.57h-41.805v41.748zm-42.03 0h41.748V567.57h-41.748v41.748zm-.283-41.748v41.748h-40.844V567.57h40.844zm-82.876 41.748h41.75V567.57h-41.75v41.748zm-42.031 0h41.749V567.57h-41.75v41.748zm-42.088 0h41.805V567.57h-41.805v41.748zm-42.032 0h41.749V567.57h-41.749v41.748zm-.283-41.748v41.748h-40.844V567.57h40.844zm-82.875 41.748h41.749V567.57h-41.749v41.748zm-42.032 0h41.749V567.57h-41.749v41.748zm-42.088 0h41.805V567.57h-41.805v41.748zm-42.032 0h41.75V567.57h-41.75v41.748zm-.283-41.748v41.748h-40.843V567.57h40.843zm-82.874 41.748h41.748V567.57h-41.748v41.748zm-42.032 0h41.748V567.57h-41.748v41.748zm-42.089 0h41.806V567.57H62.736v41.748zm-42.031 0h41.748V567.57H20.705v41.748zm1423.758 22.006v20.252h-41.749v-20.252h-.283v20.252h-41.75v-20.252h-.281v20.252h-41.806v-20.252h-.282v20.252h-41.75v-20.252h-.283v20.252h-40.843v-20.252h-.283v20.252h-41.749v-20.252h-.282v20.252h-41.75v-20.252h-.282v20.252h-41.805v-20.252h-.283v20.252h-41.749v-20.252h-.283v20.252h-40.843v-20.252h-.283v20.252h-41.75v-20.252h-.282v20.252h-41.749v-20.252h-.283v20.252h-41.805v-20.252h-.282v20.252h-41.75v-20.252h-.283v20.252h-40.843v-20.252h-.283v20.252h-41.75v-20.252h-.282v20.252h-41.748v-20.252h-.284v20.252h-41.805v-20.252h-.283v20.252h-41.748v-20.252h-.283v20.252h-40.844v-20.252h-.283v20.252h-41.749v-20.252h-.282v20.252h-41.75v-20.252h-.282v20.252h-41.805v-20.252h-.283v20.252h-41.749v-20.252h-.283v20.252h-40.844v-20.252h-.282v20.252h-41.75v-20.252h-.282v20.252h-41.749v-20.252h-.283v20.252h-41.805v-20.252h-.283v20.252h-41.749v-20.252h-.283v20.252h-40.843v-20.252h-.283v20.252h-41.748v-20.252h-.284v20.252h-41.748v-20.252h-.283v20.252H62.736v-20.252h-.283v20.252H20.705v-20.252h-.283v20.252H0v.283h20.422v41.749H0v.283h20.422v41.75H0v.281h20.422v41.806H0v.283h20.422v41.748H0v.283h20.422v21.723h.283v-21.723h41.748v21.723h.283v-21.723h41.806v21.723h.283v-21.723h41.748v21.723h.284v-21.723h41.748v21.723h.283v-21.723h40.843v21.723h.283v-21.723h41.75v21.723h.282v-21.723h41.805v21.723h.283v-21.723h41.749v21.723h.283v-21.723h41.749v21.723h.282v-21.723h40.844v21.723h.283v-21.723h41.749v21.723h.283v-21.723h41.805v21.723h.283v-21.723h41.749v21.723h.282v-21.723h41.75v21.723h.282v-21.723h40.844v21.723h.283v-21.723h41.748v21.723h.283v-21.723h41.805v21.723h.284v-21.723h41.748v21.723h.283v-21.723h41.749v21.723h.283v-21.723h40.843v21.723h.283v-21.723h41.75v21.723h.282v-21.723h41.805v21.723h.283v-21.723h41.749v21.723h.282v-21.723h41.75v21.723h.283v-21.723h40.843v21.723h.283v-21.723h41.75v21.723h.282v-21.723h41.805v21.723h.283v-21.723h41.749v21.723h.282v-21.723h41.75v21.723h.282v-21.723h40.843v21.723h.284v-21.723h41.749v21.723h.282v-21.723h41.806v21.723h.282v-21.723h41.749v21.723h.283v-21.723h41.749v21.723h.283v-21.723h20.422v-.283h-20.422V778.01h20.422v-.283h-20.422V735.92h20.422v-.282h-20.422v-41.75h20.422v-.282h-20.422v-41.749h20.422v-.283h-20.422v-20.252h-.283zm-41.749 62.284h41.749v-41.749h-41.749v41.749zm-42.032 0h41.749v-41.749h-41.75v41.749zm-42.088 0h41.806v-41.749h-41.806v41.749zm-42.031 0h41.749v-41.749h-41.75v41.749zm-.284-41.749v41.749h-40.843v-41.749h40.843zm-82.875 41.749h41.75v-41.749h-41.75v41.749zm-42.031 0h41.749v-41.749h-41.75v41.749zm-42.088 0h41.805v-41.749h-41.805v41.749zm-42.032 0h41.75v-41.749h-41.75v41.749zm-.283-41.749v41.749h-40.843v-41.749h40.843zm-82.876 41.749h41.75v-41.749h-41.75v41.749zm-42.03 0h41.748v-41.749h-41.749v41.749zm-42.089 0h41.805v-41.749h-41.805v41.749zm-42.032 0h41.75v-41.749h-41.75v41.749zm-.283-41.749v41.749h-40.843v-41.749h40.843zm-82.875 41.749h41.749v-41.749h-41.75v41.749zm-42.031 0h41.748v-41.749h-41.748v41.749zm-42.09 0h41.806v-41.749h-41.805v41.749zm-42.03 0h41.748v-41.749h-41.748v41.749zm-.283-41.749v41.749h-40.844v-41.749h40.844zm-82.876 41.749h41.75v-41.749h-41.75v41.749zm-42.031 0h41.749v-41.749h-41.75v41.749zm-42.088 0h41.805v-41.749h-41.805v41.749zm-42.032 0h41.749v-41.749h-41.749v41.749zm-.283-41.749v41.749h-40.844v-41.749h40.844zm-82.875 41.749h41.749v-41.749h-41.749v41.749zm-42.032 0h41.749v-41.749h-41.749v41.749zm-42.088 0h41.805v-41.749h-41.805v41.749zm-42.032 0h41.75v-41.749h-41.75v41.749zm-.283-41.749v41.749h-40.843v-41.749h40.843zm-82.874 41.749h41.748v-41.749h-41.748v41.749zm-42.032 0h41.748v-41.749h-41.748v41.749zm-42.089 0h41.806v-41.749H62.736v41.749zm-42.031 0h41.748v-41.749H20.705v41.749zm1382.01 42.032h41.748v-41.75h-41.749v41.75zm-42.033 0h41.749v-41.75h-41.75v41.75zm-42.088 0h41.806v-41.75h-41.806v41.75zm-42.031 0h41.749v-41.75h-41.75v41.75zm-.284-41.75v41.75h-40.843v-41.75h40.843zm-82.875 41.75h41.75v-41.75h-41.75v41.75zm-42.031 0h41.749v-41.75h-41.75v41.75zm-42.088 0h41.805v-41.75h-41.805v41.75zm-42.032 0h41.75v-41.75h-41.75v41.75zm-.283-41.75v41.75h-40.843v-41.75h40.843zm-82.876 41.75h41.75v-41.75h-41.75v41.75zm-42.03 0h41.748v-41.75h-41.749v41.75zm-42.089 0h41.805v-41.75h-41.805v41.75zm-42.032 0h41.75v-41.75h-41.75v41.75zm-.283-41.75v41.75h-40.843v-41.75h40.843zm-82.875 41.75h41.749v-41.75h-41.75v41.75zm-42.031 0h41.748v-41.75h-41.748v41.75zm-42.09 0h41.806v-41.75h-41.805v41.75zm-42.03 0h41.748v-41.75h-41.748v41.75zm-.283-41.75v41.75h-40.844v-41.75h40.844zm-82.876 41.75h41.75v-41.75h-41.75v41.75zm-42.031 0h41.749v-41.75h-41.75v41.75zm-42.088 0h41.805v-41.75h-41.805v41.75zm-42.032 0h41.749v-41.75h-41.749v41.75zm-.283-41.75v41.75h-40.844v-41.75h40.844zm-82.875 41.75h41.749v-41.75h-41.749v41.75zm-42.032 0h41.749v-41.75h-41.749v41.75zm-42.088 0h41.805v-41.75h-41.805v41.75zm-42.032 0h41.75v-41.75h-41.75v41.75zm-.283-41.75v41.75h-40.843v-41.75h40.843zm-82.874 41.75h41.748v-41.75h-41.748v41.75zm-42.032 0h41.748v-41.75h-41.748v41.75zm-42.089 0h41.806v-41.75H62.736v41.75zm-42.031 0h41.748v-41.75H20.705v41.75zm1382.01 42.088h41.748V735.92h-41.749v41.806zm-42.033 0h41.749V735.92h-41.75v41.806zm-42.088 0h41.806V735.92h-41.806v41.806zm-42.031 0h41.749V735.92h-41.75v41.806zm-.284-41.806v41.806h-40.843V735.92h40.843zm-82.875 41.806h41.75V735.92h-41.75v41.806zm-42.031 0h41.749V735.92h-41.75v41.806zm-42.088 0h41.805V735.92h-41.805v41.806zm-42.032 0h41.75V735.92h-41.75v41.806zm-.283-41.806v41.806h-40.843V735.92h40.843zm-82.876 41.806h41.75V735.92h-41.75v41.806zm-42.03 0h41.748V735.92h-41.749v41.806zm-42.089 0h41.805V735.92h-41.805v41.806zm-42.032 0h41.75V735.92h-41.75v41.806zm-.283-41.806v41.806h-40.843V735.92h40.843zm-82.875 41.806h41.749V735.92h-41.75v41.806zm-42.031 0h41.748V735.92h-41.748v41.806zm-42.09 0h41.806V735.92h-41.805v41.806zm-42.03 0h41.748V735.92h-41.748v41.806zm-.283-41.806v41.806h-40.844V735.92h40.844zm-82.876 41.806h41.75V735.92h-41.75v41.806zm-42.031 0h41.749V735.92h-41.75v41.806zm-42.088 0h41.805V735.92h-41.805v41.806zm-42.032 0h41.749V735.92h-41.749v41.806zm-.283-41.806v41.806h-40.844V735.92h40.844zm-82.875 41.806h41.749V735.92h-41.749v41.806zm-42.032 0h41.749V735.92h-41.749v41.806zm-42.088 0h41.805V735.92h-41.805v41.806zm-42.032 0h41.75V735.92h-41.75v41.806zm-.283-41.806v41.806h-40.843V735.92h40.843zm-82.874 41.806h41.748V735.92h-41.748v41.806zm-42.032 0h41.748V735.92h-41.748v41.806zm-42.089 0h41.806V735.92H62.736v41.806zm-42.031 0h41.748V735.92H20.705v41.806zm1382.01 42.031h41.748V778.01h-41.749v41.748zm-42.033 0h41.749V778.01h-41.75v41.748zm-42.088 0h41.806V778.01h-41.806v41.748zm-42.031 0h41.749V778.01h-41.75v41.748zm-.284-41.748v41.748h-40.843V778.01h40.843zm-82.875 41.748h41.75V778.01h-41.75v41.748zm-42.031 0h41.749V778.01h-41.75v41.748zm-42.088 0h41.805V778.01h-41.805v41.748zm-42.032 0h41.75V778.01h-41.75v41.748zm-.283-41.748v41.748h-40.843V778.01h40.843zm-82.876 41.748h41.75V778.01h-41.75v41.748zm-42.03 0h41.748V778.01h-41.749v41.748zm-42.089 0h41.805V778.01h-41.805v41.748zm-42.032 0h41.75V778.01h-41.75v41.748zm-.283-41.748v41.748h-40.843V778.01h40.843zm-82.875 41.748h41.749V778.01h-41.75v41.748zm-42.031 0h41.748V778.01h-41.748v41.748zm-42.09 0h41.806V778.01h-41.805v41.748zm-42.03 0h41.748V778.01h-41.748v41.748zm-.283-41.748v41.748h-40.844V778.01h40.844zm-82.876 41.748h41.75V778.01h-41.75v41.748zm-42.031 0h41.749V778.01h-41.75v41.748zm-42.088 0h41.805V778.01h-41.805v41.748zm-42.032 0h41.749V778.01h-41.749v41.748zm-.283-41.748v41.748h-40.844V778.01h40.844zm-82.875 41.748h41.749V778.01h-41.749v41.748zm-42.032 0h41.749V778.01h-41.749v41.748zm-42.088 0h41.805V778.01h-41.805v41.748zm-42.032 0h41.75V778.01h-41.75v41.748zm-.283-41.748v41.748h-40.843V778.01h40.843zm-82.874 41.748h41.748V778.01h-41.748v41.748zm-42.032 0h41.748V778.01h-41.748v41.748zm-42.089 0h41.806V778.01H62.736v41.748zm-42.031 0h41.748V778.01H20.705v41.748zm1423.758 22.006v20.252h-41.749v-20.252h-.283v20.252h-41.75v-20.252h-.281v20.252h-41.806v-20.252h-.282v20.252h-41.75v-20.252h-.283v20.252h-40.843v-20.252h-.283v20.252h-41.749v-20.252h-.282v20.252h-41.75v-20.252h-.282v20.252h-41.805v-20.252h-.283v20.252h-41.749v-20.252h-.283v20.252h-40.843v-20.252h-.283v20.252h-41.75v-20.252h-.282v20.252h-41.749v-20.252h-.283v20.252h-41.805v-20.252h-.282v20.252h-41.75v-20.252h-.283v20.252h-40.843v-20.252h-.283v20.252h-41.75v-20.252h-.282v20.252h-41.748v-20.252h-.284v20.252h-41.805v-20.252h-.283v20.252h-41.748v-20.252h-.283v20.252h-40.844v-20.252h-.283v20.252h-41.749v-20.252h-.282v20.252h-41.75v-20.252h-.282v20.252h-41.805v-20.252h-.283v20.252h-41.749v-20.252h-.283v20.252h-40.844v-20.252h-.282v20.252h-41.75v-20.252h-.282v20.252h-41.749v-20.252h-.283v20.252h-41.805v-20.252h-.283v20.252h-41.749v-20.252h-.283v20.252h-40.843v-20.252h-.283v20.252h-41.748v-20.252h-.284v20.252h-41.748v-20.252h-.283v20.252H62.736v-20.252h-.283v20.252H20.705v-20.252h-.283v20.252H0v.283h20.422v41.749H0v.283h20.422v41.75H0v.282h20.422v41.805H0v.283h20.422v41.748H0v.283h20.422v21.723h.283v-21.723h41.748v21.723h.283v-21.723h41.806v21.723h.283v-21.723h41.748v21.723h.284v-21.723h41.748v21.723h.283v-21.723h40.843v21.723h.283v-21.723h41.75v21.723h.282v-21.723h41.805v21.723h.283v-21.723h41.749v21.723h.283v-21.723h41.749v21.723h.282v-21.723h40.844v21.723h.283v-21.723h41.749v21.723h.283v-21.723h41.805v21.723h.283v-21.723h41.749v21.723h.282v-21.723h41.75v21.723h.282v-21.723h40.844v21.723h.283v-21.723h41.748v21.723h.283v-21.723h41.805v21.723h.284v-21.723h41.748v21.723h.283v-21.723h41.749v21.723h.283v-21.723h40.843v21.723h.283v-21.723h41.75v21.723h.282v-21.723h41.805v21.723h.283v-21.723h41.749v21.723h.282v-21.723h41.75v21.723h.283v-21.723h40.843v21.723h.283v-21.723h41.75v21.723h.282v-21.723h41.805v21.723h.283v-21.723h41.749v21.723h.282v-21.723h41.75v21.723h.282v-21.723h40.843v21.723h.284v-21.723h41.749v21.723h.282v-21.723h41.806v21.723h.282v-21.723h41.749v21.723h.283v-21.723h41.749v21.723h.283v-21.723h20.422v-.283h-20.422v-41.748h20.422v-.283h-20.422v-41.805h20.422v-.283h-20.422v-41.75h20.422v-.282h-20.422v-41.749h20.422v-.283h-20.422v-20.252h-.283zm-41.749 62.284h41.749v-41.749h-41.749v41.749zm-42.032 0h41.749v-41.749h-41.75v41.749zm-42.088 0h41.806v-41.749h-41.806v41.749zm-42.031 0h41.749v-41.749h-41.75v41.749zm-.284-41.749v41.749h-40.843v-41.749h40.843zm-82.875 41.749h41.75v-41.749h-41.75v41.749zm-42.031 0h41.749v-41.749h-41.75v41.749zm-42.088 0h41.805v-41.749h-41.805v41.749zm-42.032 0h41.75v-41.749h-41.75v41.749zm-.283-41.749v41.749h-40.843v-41.749h40.843zm-82.876 41.749h41.75v-41.749h-41.75v41.749zm-42.03 0h41.748v-41.749h-41.749v41.749zm-42.089 0h41.805v-41.749h-41.805v41.749zm-42.032 0h41.75v-41.749h-41.75v41.749zm-.283-41.749v41.749h-40.843v-41.749h40.843zm-82.875 41.749h41.749v-41.749h-41.75v41.749zm-42.031 0h41.748v-41.749h-41.748v41.749zm-42.09 0h41.806v-41.749h-41.805v41.749zm-42.03 0h41.748v-41.749h-41.748v41.749zm-.283-41.749v41.749h-40.844v-41.749h40.844zm-82.876 41.749h41.75v-41.749h-41.75v41.749zm-42.031 0h41.749v-41.749h-41.75v41.749zm-42.088 0h41.805v-41.749h-41.805v41.749zm-42.032 0h41.749v-41.749h-41.749v41.749zm-.283-41.749v41.749h-40.844v-41.749h40.844zm-82.875 41.749h41.749v-41.749h-41.749v41.749zm-42.032 0h41.749v-41.749h-41.749v41.749zm-42.088 0h41.805v-41.749h-41.805v41.749zm-42.032 0h41.75v-41.749h-41.75v41.749zm-.283-41.749v41.749h-40.843v-41.749h40.843zm-82.874 41.749h41.748v-41.749h-41.748v41.749zm-42.032 0h41.748v-41.749h-41.748v41.749zm-42.089 0h41.806v-41.749H62.736v41.749zm-42.031 0h41.748v-41.749H20.705v41.749zm1382.01 42.032h41.748v-41.75h-41.749v41.75zm-42.033 0h41.749v-41.75h-41.75v41.75zm-42.088 0h41.806v-41.75h-41.806v41.75zm-42.031 0h41.749v-41.75h-41.75v41.75zm-.284-41.75v41.75h-40.843v-41.75h40.843zm-82.875 41.75h41.75v-41.75h-41.75v41.75zm-42.031 0h41.749v-41.75h-41.75v41.75zm-42.088 0h41.805v-41.75h-41.805v41.75zm-42.032 0h41.75v-41.75h-41.75v41.75zm-.283-41.75v41.75h-40.843v-41.75h40.843zm-82.876 41.75h41.75v-41.75h-41.75v41.75zm-42.03 0h41.748v-41.75h-41.749v41.75zm-42.089 0h41.805v-41.75h-41.805v41.75zm-42.032 0h41.75v-41.75h-41.75v41.75zm-.283-41.75v41.75h-40.843v-41.75h40.843zm-82.875 41.75h41.749v-41.75h-41.75v41.75zm-42.031 0h41.748v-41.75h-41.748v41.75zm-42.09 0h41.806v-41.75h-41.805v41.75zm-42.03 0h41.748v-41.75h-41.748v41.75zm-.283-41.75v41.75h-40.844v-41.75h40.844zm-82.876 41.75h41.75v-41.75h-41.75v41.75zm-42.031 0h41.749v-41.75h-41.75v41.75zm-42.088 0h41.805v-41.75h-41.805v41.75zm-42.032 0h41.749v-41.75h-41.749v41.75zm-.283-41.75v41.75h-40.844v-41.75h40.844zm-82.875 41.75h41.749v-41.75h-41.749v41.75zm-42.032 0h41.749v-41.75h-41.749v41.75zm-42.088 0h41.805v-41.75h-41.805v41.75zm-42.032 0h41.75v-41.75h-41.75v41.75zm-.283-41.75v41.75h-40.843v-41.75h40.843zm-82.874 41.75h41.748v-41.75h-41.748v41.75zm-42.032 0h41.748v-41.75h-41.748v41.75zm-42.089 0h41.806v-41.75H62.736v41.75zm-42.031 0h41.748v-41.75H20.705v41.75zm1382.01 42.088h41.748v-41.805h-41.749v41.805zm-42.033 0h41.749v-41.805h-41.75v41.805zm-42.088 0h41.806v-41.805h-41.806v41.805zm-42.031 0h41.749v-41.805h-41.75v41.805zm-.284-41.805v41.805h-40.843v-41.805h40.843zm-82.875 41.805h41.75v-41.805h-41.75v41.805zm-42.031 0h41.749v-41.805h-41.75v41.805zm-42.088 0h41.805v-41.805h-41.805v41.805zm-42.032 0h41.75v-41.805h-41.75v41.805zm-.283-41.805v41.805h-40.843v-41.805h40.843zm-82.876 41.805h41.75v-41.805h-41.75v41.805zm-42.03 0h41.748v-41.805h-41.749v41.805zm-42.089 0h41.805v-41.805h-41.805v41.805zm-42.032 0h41.75v-41.805h-41.75v41.805zm-.283-41.805v41.805h-40.843v-41.805h40.843zm-82.875 41.805h41.749v-41.805h-41.75v41.805zm-42.031 0h41.748v-41.805h-41.748v41.805zm-42.09 0h41.806v-41.805h-41.805v41.805zm-42.03 0h41.748v-41.805h-41.748v41.805zm-.283-41.805v41.805h-40.844v-41.805h40.844zm-82.876 41.805h41.75v-41.805h-41.75v41.805zm-42.031 0h41.749v-41.805h-41.75v41.805zm-42.088 0h41.805v-41.805h-41.805v41.805zm-42.032 0h41.749v-41.805h-41.749v41.805zm-.283-41.805v41.805h-40.844v-41.805h40.844zm-82.875 41.805h41.749v-41.805h-41.749v41.805zm-42.032 0h41.749v-41.805h-41.749v41.805zm-42.088 0h41.805v-41.805h-41.805v41.805zm-42.032 0h41.75v-41.805h-41.75v41.805zm-.283-41.805v41.805h-40.843v-41.805h40.843zm-82.874 41.805h41.748v-41.805h-41.748v41.805zm-42.032 0h41.748v-41.805h-41.748v41.805zm-42.089 0h41.806v-41.805H62.736v41.805zm-42.031 0h41.748v-41.805H20.705v41.805zm1382.01 42.031h41.748v-41.748h-41.749v41.748zm-42.033 0h41.749v-41.748h-41.75v41.748zm-42.088 0h41.806v-41.748h-41.806v41.748zm-42.031 0h41.749v-41.748h-41.75v41.748zm-.284-41.748v41.748h-40.843v-41.748h40.843zm-82.875 41.748h41.75v-41.748h-41.75v41.748zm-42.031 0h41.749v-41.748h-41.75v41.748zm-42.088 0h41.805v-41.748h-41.805v41.748zm-42.032 0h41.75v-41.748h-41.75v41.748zm-.283-41.748v41.748h-40.843v-41.748h40.843zm-82.876 41.748h41.75v-41.748h-41.75v41.748zm-42.03 0h41.748v-41.748h-41.749v41.748zm-42.089 0h41.805v-41.748h-41.805v41.748zm-42.032 0h41.75v-41.748h-41.75v41.748zm-.283-41.748v41.748h-40.843v-41.748h40.843zm-82.875 41.748h41.749v-41.748h-41.75v41.748zm-42.031 0h41.748v-41.748h-41.748v41.748zm-42.09 0h41.806v-41.748h-41.805v41.748zm-42.03 0h41.748v-41.748h-41.748v41.748zm-.283-41.748v41.748h-40.844v-41.748h40.844zm-82.876 41.748h41.75v-41.748h-41.75v41.748zm-42.031 0h41.749v-41.748h-41.75v41.748zm-42.088 0h41.805v-41.748h-41.805v41.748zm-42.032 0h41.749v-41.748h-41.749v41.748zm-.283-41.748v41.748h-40.844v-41.748h40.844zm-82.875 41.748h41.749v-41.748h-41.749v41.748zm-42.032 0h41.749v-41.748h-41.749v41.748zm-42.088 0h41.805v-41.748h-41.805v41.748zm-42.032 0h41.75v-41.748h-41.75v41.748zm-.283-41.748v41.748h-40.843v-41.748h40.843zm-82.874 41.748h41.748v-41.748h-41.748v41.748zm-42.032 0h41.748v-41.748h-41.748v41.748zm-42.089 0h41.806v-41.748H62.736v41.748zm-42.031 0h41.748v-41.748H20.705v41.748z" fill="#424345" fill-rule="evenodd"/></svg>