<?xml version="1.0" encoding="utf-8"?>
<!-- Generator: Adobe Illustrator 21.1.0, SVG Export Plug-In . SVG Version: 6.00 Build 0)  -->
<svg version="1.1" id="Layer_1" xmlns="http://www.w3.org/2000/svg" xmlns:xlink="http://www.w3.org/1999/xlink" x="0px" y="0px"
	 viewBox="0 0 913 67.4" style="enable-background:new 0 0 913 67.4;" xml:space="preserve">
<style type="text/css">
	.st0{fill:#03010A;}
</style>
<g>
	<polygon class="st0" points="135.7,50.3 109.8,0.5 101.6,0.5 101.6,66.9 107.8,66.9 107.8,9.6 133.8,59.8 137.5,59.8 163.4,9.6 
		163.5,66.9 169.6,66.9 169.6,0.5 161.5,0.5 	"/>
	<rect x="218.9" y="0.6" class="st0" width="6.5" height="66.3"/>
	<polygon class="st0" points="281.4,0.6 274.8,0.6 274.8,66.9 310.6,66.9 310.6,61 281.4,61 	"/>
	<polygon class="st0" points="371.2,36.2 348.8,0.6 342,0.6 367.9,43.3 367.9,66.9 374.4,66.9 374.4,43.3 399.9,0.6 393.1,0.6 	"/>
	<path class="st0" d="M532.8,59.2c-3.5,1.4-7.1,2.1-10.7,2.1c-5.1,0-9.8-1.2-14.1-3.7c-4.3-2.5-7.7-5.9-10.1-10.1
		c-2.5-4.2-3.7-8.9-3.7-13.9c0-5.1,1.2-9.7,3.7-14S503.8,12,508,9.5c4.3-2.5,9-3.7,14.1-3.7c3.7,0,7.3,0.7,10.8,2.2s6.5,3.5,9.2,6.1
		l3.9-4.6c-3.2-3-6.8-5.3-11-7S526.5,0,522,0c-6.3,0-12,1.5-17.3,4.5s-9.5,7.1-12.6,12.2s-4.6,10.8-4.6,16.9s1.5,11.8,4.6,17
		s7.2,9.3,12.5,12.3c5.2,3,11,4.6,17.3,4.6c4.4,0,8.8-0.9,13-2.7c4.2-1.8,8-4.2,11.3-7.2l-4-4.3C539.4,55.8,536.3,57.8,532.8,59.2z"
		/>
	<polygon class="st0" points="595.4,0.6 588.9,0.6 588.9,66.9 624.6,66.9 624.6,61 595.4,61 	"/>
	<path class="st0" d="M809.5,36.3c2.7-3.7,4-8.3,4-13.8c0-7-2.3-12.4-6.8-16.3c-4.5-3.8-10.9-5.7-19.2-5.7h-24.8v66.3h6.5V45.4h18.2
		c1.1,0,2.6-0.1,4.6-0.2l14.3,21.6h7.6L798.1,44C803.1,42.6,806.9,40,809.5,36.3z M787.5,39.6h-18.2V6.4h18.2
		c6.3,0,11.2,1.4,14.6,4.2c3.4,2.8,5.1,6.8,5.1,12.1c0,5.4-1.7,9.6-5.1,12.5S793.8,39.6,787.5,39.6z"/>
	<polygon class="st0" points="884.4,29.5 911.1,0.5 903.1,0.5 866.3,40.9 866.3,0.5 859.8,0.5 859.8,66.9 866.3,66.9 866.3,49.2 
		879.8,34.6 904.9,66.9 913,66.9 	"/>
	<rect y="60.5" class="st0" width="53.8" height="6.3"/>
	<rect y="0.6" class="st0" width="53.8" height="6.3"/>
	<rect y="29.9" class="st0" width="26.9" height="6.3"/>
	<polygon class="st0" points="686.7,0.6 656.8,66.9 663.8,66.9 671.6,49.2 671.6,49.2 674.2,43.3 674.2,43.3 689.9,7.5 705.8,43.3 
		705.8,43.3 711.3,55.6 716.3,66.9 723.4,66.9 693.5,0.6 	"/>
</g>
</svg>
