<?xml version="1.0" encoding="UTF-8"?>
<svg width="189px" height="15px" viewBox="0 0 189 15" version="1.1" xmlns="http://www.w3.org/2000/svg" xmlns:xlink="http://www.w3.org/1999/xlink">
    <!-- Generator: Sketch 45.1 (43504) - http://www.bohemiancoding.com/sketch -->
    <title>Logo</title>
    <desc>Created with Sketch.</desc>
    <defs>
        <polygon id="path-1" points="0.110733253 0.108910514 12.2013958 0.108910514 12.2013958 13.733552 0.110733253 13.733552"></polygon>
        <polygon id="path-3" points="11.2480986 13.6187967 11.2480986 0.204598461 0.272626833 0.204598461 0.272626833 13.6187967 11.2480986 13.6187967"></polygon>
    </defs>
    <g id="Page-1" stroke="none" stroke-width="1" fill="none" fill-rule="evenodd">
        <g id="About-page---Mobile" transform="translate(-20.000000, -20.000000)">
            <g id="Logo" transform="translate(20.000000, 20.000000)">
                <g transform="translate(0.105787, 0.544490)">
                    <polygon id="Fill-1" fill="#FFFFFF" points="33.2989172 0.415137496 27.9973508 10.4757862 22.6361137 0.415137496 20.9539203 0.415137496 20.9539203 13.8293357 22.225592 13.8293357 22.225592 2.25479897 27.6057412 12.3921002 28.34918 12.3921002 33.709765 2.25479897 33.7290031 13.8293357 34.9814366 13.8293357 34.9814366 0.415137496"></polygon>
                    <polygon id="Fill-2" fill="#FFFFFF" points="45.154777 13.8294635 46.5047054 13.8294635 46.5047054 0.434109005 45.154777 0.434109005"></polygon>
                    <polygon id="Fill-3" fill="#FFFFFF" points="56.6779154 0.434109005 56.6779154 13.8294635 64.0536108 13.8294635 64.0536108 12.6410294 58.0278437 12.6410294 58.0278437 0.434109005"></polygon>
                    <polygon id="Fill-4" fill="#FFFFFF" points="81.0740551 0.434109005 76.5547298 7.63944977 71.9375836 0.434109005 70.5289627 0.434109005 75.8699836 9.05752215 75.8699836 13.8294635 77.2199119 13.8294635 77.2199119 9.05752215 82.482676 0.434109005"></polygon>
                    <g id="Group-20" transform="translate(0.000000, 0.210539)">
                        <g id="Group-7" transform="translate(100.429452, 0.000000)">
                            <mask id="mask-2" fill="white">
                                <use xlink:href="#path-1"></use>
                            </mask>
                            <g id="Clip-6"></g>
                            <path d="M9.48197494,1.71858236 C8.76462172,1.42474754 8.02118292,1.27751075 7.25165855,1.27751075 C6.19519289,1.27751075 5.22676603,1.52663157 4.34637798,2.02519261 C3.46598993,2.52343426 2.76820089,3.20340635 2.25301084,4.06606705 C1.7378208,4.92840837 1.48022577,5.8705961 1.48022577,6.89231086 C1.48022577,7.9146644 1.7378208,8.85365828 2.25301084,9.70961188 C2.76820089,10.5655655 3.46598993,11.245857 4.34637798,11.7501669 C5.22676603,12.2551157 6.19519289,12.507111 7.25165855,12.507111 C8.00781406,12.507111 8.74505754,12.3633874 9.46241076,12.0762597 C10.179764,11.7884932 10.8188605,11.3895805 11.3797003,10.8785634 L12.2013958,11.7409048 C11.5231709,12.3541252 10.7467991,12.8395915 9.87325852,13.196984 C8.99939186,13.5550154 8.10596103,13.733552 7.19296601,13.733552 C5.9017302,13.733552 4.71483668,13.4269417 3.63228545,12.8137212 C2.54973422,12.2005007 1.69217105,11.3704174 1.05959593,10.322513 C0.426694742,9.27524736 0.110733253,8.13184666 0.110733253,6.89231086 C0.110733253,5.65341384 0.430281508,4.51640085 1.06937802,3.48159127 C1.70847453,2.44646231 2.5725591,1.62596052 3.66163172,1.01912774 C4.75070435,0.412294964 5.94085856,0.108878576 7.23209437,0.108878576 C8.15813217,0.108878576 9.05156301,0.278152982 9.91238688,0.616701794 C10.7732107,0.954931221 11.5296923,1.42474754 12.1818316,2.02519261 L11.3797003,2.94502334 C10.8319033,2.42123084 10.1993282,2.01241718 9.48197494,1.71858236" id="Fill-5" fill="#FFFFFF" mask="url(#mask-2)"></path>
                        </g>
                        <polygon id="Fill-8" fill="#FFFFFF" points="121.454096 0.223633848 122.804025 0.223633848 122.804025 12.4305542 128.829792 12.4305542 128.829792 13.6186689 121.454096 13.6186689"></polygon>
                        <path d="M162.4209,8.0997484 C163.725179,8.0997484 164.729473,7.80942682 165.433784,7.2281449 C166.138094,6.64654359 166.490249,5.80655927 166.490249,4.70787256 C166.490249,3.63505609 166.138094,2.81742877 165.433784,2.2549906 C164.729473,1.69287182 163.725179,1.41181242 162.4209,1.41181242 L158.664578,1.41181242 L158.664578,8.0997484 L162.4209,8.0997484 Z M166.333736,13.6187328 L163.379545,9.24953682 C162.96185,9.27540706 162.642628,9.2878631 162.4209,9.2878631 L158.664578,9.2878631 L158.664578,13.6187328 L157.314649,13.6187328 L157.314649,0.223697725 L162.4209,0.223697725 C164.129505,0.223697725 165.450087,0.610473773 166.382646,1.38306771 C167.315206,2.15630043 167.781485,3.2514739 167.781485,4.66954628 C167.781485,5.78100842 167.507913,6.70754625 166.95979,7.44820163 C166.411993,8.18917638 165.629425,8.70658117 164.612414,9.00041599 L167.89887,13.6187328 L166.333736,13.6187328 Z" id="Fill-10" fill="#FFFFFF"></path>
                        <g id="Group-14" transform="translate(177.055819, 0.000000)">
                            <mask id="mask-4" fill="white">
                                <use xlink:href="#path-3"></use>
                            </mask>
                            <g id="Clip-13"></g>
                            <polygon id="Fill-12" fill="#FFFFFF" mask="url(#mask-4)" points="11.2481312 13.6187967 9.58517598 13.6187967 4.40066858 7.10332898 1.62255518 10.0544526 1.62255518 13.6187967 0.272626833 13.6187967 0.272626833 0.204598461 1.62255518 0.204598461 1.62255518 8.36809624 9.21345659 0.204598461 10.8568476 0.204598461 5.35931334 6.06820001"></polygon>
                        </g>
                        <polygon id="Fill-15" fill="#FFFFFF" points="0 13.6189244 11.086368 13.6189244 11.086368 12.3378685 0 12.3378685"></polygon>
                        <polygon id="Fill-17" fill="#FFFFFF" points="0 1.511333 11.086368 1.511333 11.086368 0.230596455 0 0.230596455"></polygon>
                        <polygon id="Fill-18" fill="#FFFFFF" points="0 7.43689537 5.54318402 7.43689537 5.54318402 6.15615883 0 6.15615883"></polygon>
                        <polygon id="Fill-19" fill="#FFFFFF" points="138.513702 10.0544206 138.52218 10.0544206 139.053021 8.86630595 139.041935 8.86630595 142.289588 1.62263891 145.57637 8.86630595 145.570175 8.86630595 146.693811 11.3479326 147.72843 13.6187647 149.195743 13.6187647 143.033027 0.223729663 141.624406 0.223729663 135.46169 13.6187647 136.909439 13.6187647"></polygon>
                    </g>
                </g>
            </g>
        </g>
    </g>
</svg>