<svg width="23" height="24" viewBox="0 0 23 24" xmlns="http://www.w3.org/2000/svg"><title>instagram</title><g fill="#846DCB"><path d="M11.5 2.865c3.073 0 3.436.014 4.645.068 1.123.05 1.73.241 2.134.4.534.209.92.463 1.32.866.405.408.652.794.863 1.334.157.408.346 1.025.396 2.155.054 1.225.067 1.592.067 4.69 0 3.099-.013 3.47-.067 4.691-.05 1.135-.239 1.747-.396 2.155a3.61 3.61 0 0 1-.858 1.334 3.595 3.595 0 0 1-1.32.87c-.405.16-1.016.35-2.134.4-1.213.055-1.577.069-4.645.069-3.069 0-3.437-.014-4.646-.069-1.123-.05-1.73-.24-2.133-.4a3.568 3.568 0 0 1-1.321-.865 3.636 3.636 0 0 1-.863-1.334c-.157-.408-.345-1.025-.395-2.155-.054-1.225-.068-1.592-.068-4.69 0-3.1.014-3.47.068-4.692.049-1.134.238-1.746.395-2.154.207-.54.459-.93.858-1.334a3.595 3.595 0 0 1 1.321-.871c.404-.159 1.015-.35 2.134-.4 1.208-.054 1.572-.068 4.645-.068zm0-2.09c-3.122 0-3.513.013-4.74.067-1.222.055-2.061.254-2.79.54a5.61 5.61 0 0 0-2.039 1.342A5.688 5.688 0 0 0 .601 4.78C.32 5.52.122 6.362.068 7.596.014 8.84 0 9.234 0 12.387c0 3.153.014 3.547.067 4.786.054 1.234.252 2.082.535 2.817a5.676 5.676 0 0 0 1.33 2.06 5.62 5.62 0 0 0 2.034 1.338c.732.286 1.568.486 2.79.54 1.227.054 1.617.068 4.74.068 3.122 0 3.512-.014 4.739-.068 1.222-.054 2.062-.254 2.79-.54a5.61 5.61 0 0 0 2.035-1.338 5.693 5.693 0 0 0 1.325-2.055c.283-.74.48-1.583.534-2.817.054-1.239.068-1.633.068-4.786 0-3.154-.014-3.548-.067-4.786-.054-1.234-.252-2.082-.535-2.818a5.444 5.444 0 0 0-1.316-2.064 5.62 5.62 0 0 0-2.035-1.338c-.732-.286-1.568-.486-2.79-.54-1.23-.059-1.621-.073-4.743-.073L11.5.774z"/><path d="M11.5 6.422c-3.261 0-5.907 2.672-5.907 5.965 0 3.294 2.646 5.965 5.907 5.965s5.907-2.671 5.907-5.965c0-3.293-2.646-5.965-5.907-5.965zm0 9.835c-2.116 0-3.832-1.733-3.832-3.87s1.716-3.87 3.832-3.87c2.116 0 3.832 1.733 3.832 3.87s-1.716 3.87-3.832 3.87zm7.52-10.071c0 .769-.617 1.393-1.379 1.393s-1.38-.624-1.38-1.393.618-1.393 1.38-1.393c.762 0 1.38.623 1.38 1.393z"/></g></svg>